# xmcd
#
# Track frame offsets: 
#        187
#        13285
#        36015
#        53015
#        76020
#        95770
#        116482
#        139165
#        161025
#        176500
#
# Disc length: 2657 seconds
#
# Revision: 1
# Processed by: cddbd v1.5.2PL0 Copyright (c) Steve Scherf et al.
# Submitted via: ExactAudioCopy v1.0b3
#
DISCID=7b0a5f0a
DTITLE=EPO - HARMONY
DYEAR=1985
DGENRE=JPop
TTITLE0=パフォーマンス (Overture)
TTITLE1=夕焼けのストラット
TTITLE2=ビクティム
TTITLE3=疑似恋人達の夜
TTITLE4=TIBETAN DANCE
TTITLE5=私について
TTITLE6=上海エトランゼ
TTITLE7=じょうずな不良のしかた
TTITLE8=Just one little kiss
TTITLE9=ハーモニー
EXTD=YEAR: 1985
EXTT0=
EXTT1=
EXTT2=
EXTT3=
EXTT4=
EXTT5=
EXTT6=
EXTT7=
EXTT8=
EXTT9=
PLAYORDER=
